<svg xmlns="http://www.w3.org/2000/svg" viewBox="0 0 24 24">
  <defs>
    <linearGradient id="cloudinary-gradient" x1="0%" y1="0%" x2="100%" y2="100%">
      <stop offset="0%" stop-color="#3448C5"/>
      <stop offset="100%" stop-color="#00C7B7"/>
    </linearGradient>
  </defs>
  <path fill="url(#cloudinary-gradient)" d="M19.2,7.7c-0.4-2.5-2.4-4.4-5-4.4c-2.1,0-3.9,1.3-4.7,3.2c-0.2,0-0.5-0.1-0.7-0.1c-1.8,0-3.3,1.4-3.4,3.2C3.5,10.2,2,12.1,2,14.3c0,2.5,2,4.5,4.5,4.5h11c2.5,0,4.5-2,4.5-4.5C22,11.7,20.8,9.6,19.2,7.7z"/>
  <path fill="#FFFFFF" d="M17.5,15.5h-11c-0.7,0-1.2-0.6-1.2-1.2c0-0.7,0.6-1.2,1.2-1.2h11c0.7,0,1.2,0.6,1.2,1.2C18.8,15,18.2,15.5,17.5,15.5z"/>
  <path fill="#FFFFFF" d="M17.5,11.8h-11c-0.7,0-1.2-0.6-1.2-1.2c0-0.7,0.6-1.2,1.2-1.2h11c0.7,0,1.2,0.6,1.2,1.2C18.8,11.3,18.2,11.8,17.5,11.8z"/>
</svg> 