<svg xmlns="http://www.w3.org/2000/svg" viewBox="0 0 24 24">
  <defs>
    <linearGradient id="proteus-gradient" x1="0%" y1="0%" x2="100%" y2="100%">
      <stop offset="0%" stop-color="#4285F4"/>
      <stop offset="100%" stop-color="#34A853"/>
    </linearGradient>
  </defs>
  <path fill="url(#proteus-gradient)" d="M12 2C6.48 2 2 6.48 2 12s4.48 10 10 10 10-4.48 10-10S17.52 2 12 2zm0 18c-4.41 0-8-3.59-8-8s3.59-8 8-8 8 3.59 8 8-3.59 8-8 8z"/>
  <path fill="#4285F4" d="M12 6c-3.31 0-6 2.69-6 6s2.69 6 6 6 6-2.69 6-6-2.69-6-6-6zm0 10c-2.21 0-4-1.79-4-4s1.79-4 4-4 4 1.79 4 4-1.79 4-4 4z"/>
  <circle cx="12" cy="12" r="2" fill="#34A853"/>
  <path fill="#4285F4" d="M18 12h2c0-4.41-3.59-8-8-8v2c3.31 0 6 2.69 6 6z"/>
  <path fill="#34A853" d="M12 18v2c4.41 0 8-3.59 8-8h-2c0 3.31-2.69 6-6 6z"/>
  <path fill="#4285F4" d="M6 12H4c0 4.41 3.59 8 8 8v-2c-3.31 0-6-2.69-6-6z"/>
  <path fill="#34A853" d="M12 6V4c-4.41 0-8 3.59-8 8h2c0-3.31 2.69-6 6-6z"/>
</svg> 