<svg xmlns="http://www.w3.org/2000/svg" viewBox="0 0 32 32">
  <path fill="#00599C" d="M16 4.2c-6.6 0-12 5.4-12 12s5.4 12 12 12 12-5.4 12-12-5.4-12-12-12zm0 21c-5 0-9-4-9-9s4-9 9-9 9 4 9 9-4 9-9 9z"/>
  <path fill="#00599C" d="M18.1 14.8v-.5h1.3v.5h-.4v1.2h-.5v-1.2h-.4zm2.1-.5h.5l.3.9.3-.9h.5v1.7h-.4v-1.1l-.3.8h-.3l-.3-.8v1.1h-.3v-1.7z"/>
  <path fill="#00599C" d="M22.9 14.8v-.5h1.3v.5h-.4v1.2h-.5v-1.2h-.4zm2.1-.5h.5l.3.9.3-.9h.5v1.7h-.4v-1.1l-.3.8h-.3l-.3-.8v1.1h-.3v-1.7z"/>
  <path fill="#00599C" d="M12 13.4v1.1h1.1v-1.1h1.1v1.1h1.1v1.1h-1.1v1.1h-1.1v-1.1H12v-1.1h-1.1v-1.1H12z"/>
</svg>