<svg xmlns="http://www.w3.org/2000/svg" viewBox="0 0 24 24">
  <defs>
    <linearGradient id="multer-gradient" x1="0%" y1="0%" x2="100%" y2="100%">
      <stop offset="0%" stop-color="#3C873A"/>
      <stop offset="100%" stop-color="#68B04D"/>
    </linearGradient>
  </defs>
  <rect width="24" height="24" rx="4" fill="#3C873A" fill-opacity="0.1"/>
  <path d="M12 4L4 8V16L12 20L20 16V8L12 4Z" fill="url(#multer-gradient)"/>
  <path d="M12 4V12M12 20V12M4 8L12 12M20 8L12 12" stroke="#3C873A" stroke-width="1"/>
  <circle cx="12" cy="12" r="2" fill="#FFFFFF"/>
  <circle cx="4" cy="8" r="1" fill="#FFFFFF"/>
  <circle cx="4" cy="16" r="1" fill="#FFFFFF"/>
  <circle cx="20" cy="8" r="1" fill="#FFFFFF"/>
  <circle cx="20" cy="16" r="1" fill="#FFFFFF"/>
  <circle cx="12" cy="4" r="1" fill="#FFFFFF"/>
  <circle cx="12" cy="20" r="1" fill="#FFFFFF"/>
  <path d="M15 11L17 9M15 13L17 15" stroke="#FFFFFF" stroke-width="1"/>
  <path d="M9 11L7 9M9 13L7 15" stroke="#FFFFFF" stroke-width="1"/>
</svg> 